<?xml version="1.0" ?><!DOCTYPE svg  PUBLIC '-//W3C//DTD SVG 1.1//EN'  'http://www.w3.org/Graphics/SVG/1.1/DTD/svg11.dtd'><svg enable-background="new 0 0 99.176 99.176" height="99.176px" id="Layer_1" version="1.1" viewBox="0 0 99.176 99.176" width="99.176px" xml:space="preserve" xmlns="http://www.w3.org/2000/svg" xmlns:xlink="http://www.w3.org/1999/xlink"><g><path d="M68.438,44.101   c-2.299,0-4.178,1.879-4.178,4.178v7.223c0,0.756-0.622,1.385-1.384,1.385c-0.779,0-1.405-0.629-1.405-1.385V39.927   c0-2.312-1.864-4.178-4.178-4.178c-2.299,0-4.174,1.865-4.174,4.178v12.781c0,0.766-0.629,1.385-1.388,1.385   c-0.776,0-1.405-0.619-1.405-1.385V11.566c0-2.301-1.864-4.176-4.18-4.176c-2.311,0-4.176,1.875-4.176,4.176v41.142   c0,0.766-0.625,1.385-1.402,1.385c-0.759,0-1.387-0.619-1.387-1.385v-35.56c0-2.314-1.877-4.178-4.178-4.178   c-2.311,0-4.176,1.863-4.176,4.178v49.496l-5.65-7.732c-1.672-2.568-4.939-3.439-7.332-1.953c-2.383,1.504-2.969,4.799-1.32,7.371   c0,0,9.102,13.771,12.983,19.664c3.876,5.904,10.165,10.518,21.923,10.518c19.459,0,21.201-15.023,21.201-19.514V48.278   C72.633,45.979,70.751,44.101,68.438,44.101z" fill="#FFFFFF" stroke="#58595B" stroke-miterlimit="10" stroke-width="3.4835"/><path d="M68.438,44.101   c-2.299,0-4.178,1.879-4.178,4.178v7.223c0,0.756-0.622,1.385-1.384,1.385c-0.779,0-1.405-0.629-1.405-1.385V39.927   c0-2.312-1.864-4.178-4.178-4.178c-2.299,0-4.174,1.865-4.174,4.178v12.781c0,0.766-0.629,1.385-1.388,1.385   c-0.776,0-1.405-0.619-1.405-1.385V11.566c0-2.301-1.864-4.176-4.18-4.176c-2.311,0-4.176,1.875-4.176,4.176v41.142   c0,0.766-0.625,1.385-1.402,1.385c-0.759,0-1.387-0.619-1.387-1.385v-35.56c0-2.314-1.877-4.178-4.178-4.178   c-2.311,0-4.176,1.863-4.176,4.178v49.496l-5.65-7.732c-1.672-2.568-4.939-3.439-7.332-1.953c-2.383,1.504-2.969,4.799-1.32,7.371   c0,0,9.102,13.771,12.983,19.664c3.876,5.904,10.165,10.518,21.923,10.518c19.459,0,21.201-15.023,21.201-19.514V48.278   C72.633,45.979,70.751,44.101,68.438,44.101z" fill="#FFFFFF" stroke="#58595B" stroke-linecap="round" stroke-linejoin="round" stroke-miterlimit="10"/><path clip-rule="evenodd" d="M55.537,12.13c-0.609,0.861-0.01,2.156,1.205,1.324   c4.562,1.613,9.336,1.887,13.963,3.062c0.801-0.439,0.463-1.059,0.539-1.615c-3.689-0.842-7.447-1.268-11.125-2.186   c6.299-1.449,12.832-1.789,19.049-0.877c0.902,0.133,2.133,0.434,2.705,0.357c0.193,0.273,0.312,0.191,0.727,0.328   c0.832-0.256,1.137-1.117,0.918-1.766c-1.465-0.307-2.957-0.422-4.443-0.564c-1.477-0.139-2.977-0.381-4.488-0.287   c-0.451-0.281-1.006,0.096-1.463-0.16c-0.156,0.211-0.594-0.047-0.537,0.27c-3.756-0.514-8.299,0.471-12.344,1.016   c2.574-1.357,6.301-2.918,9.096-4.648c0.488-0.396,0.393-1.568-0.014-1.701c-0.494-0.16-2.27,0.768-3.084,1.141   C62.535,7.521,58.096,9.425,55.537,12.13L55.537,12.13z" fill="#939598" fill-rule="evenodd"/></g></svg>